<?xml version="1.0" encoding="utf-8"?>
<!-- Generator: Adobe Illustrator 19.1.0, SVG Export Plug-In . SVG Version: 6.00 Build 0)  -->
<svg version="1.1" id="Layer_1" xmlns="http://www.w3.org/2000/svg" xmlns:xlink="http://www.w3.org/1999/xlink" x="0px" y="0px"
	 viewBox="0 0 128.2 130.8" style="enable-background:new 0 0 128.2 130.8;" xml:space="preserve">
<style type="text/css">
	.st0{fill:#FFFFFF;stroke:#000000;stroke-width:2;stroke-miterlimit:10;}
	.st1{fill:#998B33;stroke:#000000;stroke-width:2;stroke-miterlimit:10;}
	.st2{fill:#EDBF82;stroke:#000000;stroke-width:2;stroke-miterlimit:10;}
</style>
<ellipse class="st0" cx="64.1" cy="65.4" rx="63.1" ry="64.4"/>
<path class="st1" d="M57.1,32.1C52,30.6,46.4,32.2,41.9,35s-8.2,6.8-12.2,10.4c-5.7,5.2-12.1,9.8-18.8,13.6c2.7,1.6,5.4,3.2,8.1,4.8
	C15.6,67.9,12.3,72,9,76c2.9-0.2,5.7-0.3,8.6-0.5c-0.4,1.7-1.2,3.3-2.2,4.8c8,0.6,16,0.5,23.9-0.3C44,79.5,49,78.5,52,74.9
	c1.4-1.8,2.4-4.2,4.6-4.9c1.5-0.5,3.2,0,4.7,0.5c8.6,2.6,17.5,4.2,26.4,4.7c4,0.2,8.1,0.2,11.7-1.4c1.8-0.8,3.5-2,5.4-2.6
	c2.6-0.8,5.3-0.6,8-0.8c2.7-0.2,5.6-0.9,7.2-3.1c-1.9-0.1-3.8-0.7-5.4-1.8c2.4-3,4.4-6.3,5.9-9.9c-2.9,0.1-5.8,0.9-8.4,2.3
	c0.1-5.7,1.3-11.5,3.6-16.8c-2.9,2.9-6.3,5.9-10.3,5.9c-2.2,0-4.3-1-6.3-1.9c-2.7-1.3-5.4-2.5-7.6-4.6c-1.3-1.2-2.4-2.7-3.7-4
	c-5.4-5.2-13.9-6.1-21.3-4.6"/>
<ellipse class="st2" cx="63.6" cy="71.1" rx="40.6" ry="39.4"/>
<path class="st0" d="M67.4,72c-12.1,1.1-24.3,1-36.5,1.9c2.5,17.8,16,31.3,32.2,31.3c17.9,0,32.4-16.5,32.7-36.8
	C86.3,68.6,76.7,71.2,67.4,72z"/>
<ellipse class="st0" cx="49.5" cy="58.4" rx="6.7" ry="7.8"/>
<ellipse class="st0" cx="74.5" cy="56.4" rx="6.7" ry="7.8"/>
<path class="st1" d="M69.5,40.3c-3.3,0.2-6.3,1.8-9.4,3.1c-3.1,1.2-6.6,2-9.6,0.6c-3.4-1.7-4.9-5.8-5.9-9.5s-2.2-7.8-5.5-9.8
	c3.6-0.2,7.1-0.5,10.7-0.7c0-3,0-6,0-9c6.2,1.1,12.1,3.8,17.1,7.6c0.7,0.5,1.3,1.1,2.1,1.3c1.3,0.3,2.7-0.4,3.9-1.1
	c1.9-1.1,3.7-2.1,5.6-3.2c-0.3,2.6-0.7,5.3-1.2,7.9c-0.9,4.9-2.8,10.5-7.5,12.1"/>
</svg>
