<?xml version="1.0" encoding="utf-8"?>
<svg xmlns="http://www.w3.org/2000/svg" width="296.33" height="458.78" viewBox="65.58 82.32 296.33 458.78">
  <polyline points="175.047,212.752 171.068,210.479 166.320,211.483 161.969,210.990 157.977,210.538 154.690,209.477 151.629,207.276 149.597,205.816 147.310,204.363 144.998,202.921 143.451,201.955 141.951,201.102 140.913,200.642 140.139,200.300 139.457,200.708 139.015,201.209 138.383,201.924 138.607,202.761 139.198,204.960 139.993,207.917 140.737,212.990 141.237,217.473 141.480,219.659 141.714,221.732 141.937,223.453 142.487,227.711 142.495,230.138 142.444,234.027 142.407,236.877 142.585,240.191 142.540,244.135 142.515,246.391 142.239,248.659 142.024,250.858 141.792,253.226 141.754,255.428 141.657,257.995 141.489,262.391 140.934,268.372 140.449,273.391 140.128,276.721 139.779,279.674 139.338,281.170 139.023,282.241 138.499,282.196 137.851,281.636 136.878,280.795 135.441,279.680 134.422,277.885 133.848,276.873 133.431,275.492 133.031,273.668 132.617,271.782 132.256,269.443 131.780,267.034 130.790,262.021 128.948,257.471 127.188,252.947 126.107,250.169 125.234,247.413 124.729,244.966 123.860,240.745 124.100,237.756 123.942,234.631 123.772,231.282 123.783,227.547 124.686,224.057 126.442,217.264 126.871,215.293 125.937,211.267" stroke="#000000" stroke-width="0.75" fill="none" stroke-linecap="round" stroke-linejoin="round" />
  <polyline points="139.435,204.734 140.809,204.812 140.602,204.628 139.846,204.129 139.355,203.805 138.680,203.335 138.044,202.833 136.750,201.812 135.622,200.247 134.055,198.376 132.417,196.422 130.625,194.278 129.323,192.452 128.613,191.457 128.048,190.556 127.733,189.832 127.576,189.470 127.481,189.153 127.461,188.890 127.455,188.802 127.457,188.721 127.468,188.646" stroke="#000000" stroke-width="0.75" fill="none" stroke-linecap="round" stroke-linejoin="round" />
  <polyline points="127.328,211.456 127.777,211.396 128.631,211.287 129.182,211.456 129.435,211.534 129.559,211.835 129.602,212.047 129.644,212.256 129.296,212.499 129.138,212.614 129.051,212.678 128.869,212.508 128.902,212.475 128.999,212.379 129.830,212.743 130.573,213.168 131.566,213.736 132.577,214.972 133.451,215.988 134.257,216.924 134.811,217.745 135.253,218.354 135.423,218.588 135.595,218.787 135.769,219.009 136.031,219.342 136.261,219.742 136.557,220.079 136.903,220.473 137.247,220.865 137.580,220.998 137.747,221.064 138.036,220.666 138.271,220.444 138.522,220.207 139.033,220.242 139.338,220.117 139.773,219.939 140.035,219.627 139.898,219.235 139.505,218.107 136.786,216.808 134.746,215.434 131.985,213.574 130.339,210.902 128.718,208.674 126.846,206.100 123.525,204.267 121.020,202.266 118.821,200.510 117.305,199.313 115.684,198.603 113.432,197.617 110.364,196.807 108.450,195.972 106.799,195.252 104.880,193.688 103.026,192.309 102.217,191.707 101.693,191.156 100.708,190.912 99.055,190.502 96.553,191.501 94.541,191.428 92.746,191.362 91.253,190.608 89.764,189.200 89.153,188.622 88.547,188.063 87.997,187.487 87.688,187.164 87.376,186.846 87.070,186.506 86.723,186.120 86.356,185.726 86.099,185.398 85.879,185.117 85.689,184.888 85.635,184.743 85.579,184.591 86.196,184.739 86.886,184.982 89.072,185.753 92.055,186.733 94.401,186.694 95.699,186.673 97.150,186.775 98.153,186.506 98.608,186.384 98.913,186.112 99.221,185.901 99.416,185.768 99.610,185.644 99.824,185.536 100.166,185.364 100.628,185.411 100.891,185.259 101.105,185.136 101.245,184.987 101.215,184.743 101.176,184.419 100.792,184.039 100.428,183.635 97.864,180.789 93.698,177.583 91.986,174.408 91.038,172.649 89.862,170.889 89.064,168.706 88.691,167.684 88.439,166.632 88.233,165.697 88.100,165.095 87.981,164.552 87.910,164.111 87.817,163.537 87.709,163.171 87.953,163.230 88.244,163.299 88.589,163.758 88.977,164.111 91.085,166.031 94.163,169.018 96.071,172.230 97.160,174.062 98.123,175.279 98.993,176.120 99.391,176.505 99.764,176.808 100.148,177.102 100.818,177.616 101.707,178.217 102.702,178.625 103.429,178.923 104.146,179.141 104.793,179.179 105.176,179.202 105.523,179.380 105.764,179.318 106.440,179.142 105.310,176.688 104.137,174.597 101.873,170.561 100.066,167.050 98.993,164.300 98.401,162.783 97.783,161.345 97.506,160.083 97.325,159.256 97.219,158.398 97.366,157.716 97.581,156.718 98.880,156.816 100.288,157.628 103.629,159.556 106.018,164.095 106.551,167.598 106.861,169.630 107.669,171.405 108.502,172.646 108.875,173.201 109.270,173.606 109.753,173.993 110.066,174.244 110.374,174.522 110.680,174.685 111.081,174.898 111.493,174.845 111.564,174.496 111.766,173.504 109.870,170.538 108.266,166.893 107.628,165.442 106.985,163.900 106.455,162.499 105.862,160.932 105.462,159.585 105.257,158.270 104.892,155.942 104.992,153.553 105.160,152.114 105.239,151.440 105.189,151.000 105.484,150.805 106.013,150.454 107.345,151.113 108.502,151.976 110.969,153.814 112.696,157.157 113.322,160.876 113.905,164.339 114.143,166.701 115.081,168.517 116.044,170.384 117.336,172.027 118.378,173.577 118.697,174.051 119.071,174.511 119.446,175.012 119.806,175.493 120.203,175.973 120.460,176.498 120.997,177.591 121.187,178.812 121.851,179.418 122.238,179.771 122.773,179.949 123.242,179.884 124.220,179.748 124.740,177.568 125.193,175.894 125.681,174.087 126.260,172.361 126.908,170.934 127.321,170.022 127.776,169.231 128.482,168.706 128.918,168.382 129.413,168.152 129.926,168.152 131.716,168.150 133.478,171.161 134.518,173.112 134.935,173.892 135.175,174.733 135.122,175.478 135.042,176.599 134.109,177.327 133.215,178.260 131.710,179.830 130.765,181.271 129.786,182.943 128.677,184.836 126.626,186.880 128.858,189.753" stroke="#000000" stroke-width="0.75" fill="none" stroke-linecap="round" stroke-linejoin="round" />
  <polyline points="175.835,213.634 175.176,212.382 175.844,212.091 176.858,211.959 177.385,211.891 178.007,211.721 178.573,211.821 179.216,211.935 179.753,212.601 180.427,213.206 181.855,214.487 183.985,215.820 185.571,217.007 188.493,219.196 188.859,219.912 193.138,221.325" stroke="#000000" stroke-width="0.75" fill="none" stroke-linecap="round" stroke-linejoin="round" />
  <polyline points="140.266,279.924 140.106,280.256 139.630,280.496 139.242,280.667 138.877,280.828 138.592,280.957 138.639,280.994 138.812,281.133 139.518,280.944 140.169,280.856 142.379,280.556 145.502,280.534 148.987,280.251 151.506,280.047 154.165,279.100 156.222,278.111 158.045,277.235 159.050,276.345 160.018,275.707 161.954,274.431 165.236,273.137 167.856,272.648 169.995,272.249 171.865,272.141 173.980,272.094 175.048,272.070 176.135,272.060 177.138,272.094 177.815,272.117 178.447,272.090 178.940,272.371 179.397,272.632 179.704,273.232 179.824,273.718 179.953,274.244 179.656,274.710 179.132,274.826 178.799,274.900 178.415,274.953 178.065,274.876 177.653,274.786 177.388,274.121 177.182,273.806 177.027,273.571 176.901,273.667 176.902,274.083 176.904,275.265 177.372,278.268 177.505,281.170 177.590,283.013 177.594,284.818 177.269,286.785 176.973,288.576 176.325,290.560 175.791,292.538 174.153,298.605 174.480,303.210 175.327,308.387 176.335,314.544 176.297,320.106 175.607,325.406 175.119,329.153 173.813,332.490 172.729,336.295 171.926,339.114 171.611,342.290 171.618,344.742 171.624,346.880 171.885,348.304 172.169,350.621 172.468,353.058 172.814,356.434 173.236,359.936 173.438,361.606 173.636,363.274 173.796,365.223 174.018,367.927 174.128,371.190 174.260,374.501 174.486,380.190 174.861,385.781 174.907,391.193 174.945,395.542 174.667,399.727 174.820,402.686 174.926,404.749 175.418,406.161 175.747,407.508 176.474,410.482 176.634,414.070 177.138,416.546 177.632,418.974 178.371,420.190 178.940,422.198 179.293,423.443 179.645,424.959 180.243,427.347 180.704,429.188 181.349,431.554 182.002,433.931 182.416,435.439 182.839,436.903 183.165,438.148 185.223,446.006 184.692,449.781 184.232,454.374 183.908,457.618 183.814,460.707 183.673,463.652 183.592,465.326 183.431,467.425 183.253,469.166 183.150,470.162 182.987,471.049 182.789,472.086 182.682,472.646 182.582,473.247 182.422,474.037 181.981,476.210 181.218,479.470 180.243,482.698 179.752,484.324 179.161,485.962 178.669,487.343 177.953,489.354 177.441,490.649 177.225,491.611 177.114,492.108 177.106,492.569 177.138,492.996 177.162,493.321 177.242,493.625 177.322,493.927 177.421,494.304 177.437,494.687 177.549,494.947 177.885,495.728 179.496,494.252 181.494,493.184 183.600,492.059 186.385,491.606 189.752,490.868 193.976,489.943 197.911,488.916 201.991,488.225 205.633,487.607 209.928,487.328 214.649,487.381 217.044,487.408 219.632,487.534 222.163,487.809 225.705,488.193 228.908,489.075 232.320,489.848 233.975,490.224 235.686,490.626 237.743,490.868 242.026,491.373 247.643,490.943 253.979,490.402 259.745,489.910 266.167,489.671 271.921,489.609 280.220,489.520 287.385,489.606 292.610,489.609 295.034,489.611 297.009,489.633 298.454,489.609 300.109,489.582 301.047,489.374 301.655,488.867 302.009,488.572 302.210,488.182 302.390,487.759 302.714,486.996 303.148,486.210 303.370,484.234 303.518,482.913 303.605,481.111 303.650,478.997 303.709,476.203 303.694,472.930 303.457,468.801 303.357,467.044 303.172,465.103 302.994,462.960 302.683,459.237 302.407,454.923 302.066,450.623 301.863,448.058 301.739,445.508 301.515,443.108 301.293,440.722 300.913,438.485 300.536,436.436 299.450,430.539 297.840,426.347 296.223,421.921 294.930,418.383 293.730,414.698 292.654,410.944 292.040,408.804 291.551,406.606 291.035,404.449 289.759,399.110 288.144,393.857 286.390,388.688 285.522,386.128 284.571,383.684 283.748,381.034 282.713,377.700 282.007,373.977 281.203,370.322 280.658,367.845 280.148,365.385 279.576,363.184 278.346,358.454 276.488,355.011 275.263,352.056 273.595,348.032 273.316,344.432 272.945,341.116 272.438,336.596 271.945,334.071 271.598,331.247 271.349,329.231 271.158,326.741 270.723,323.833 270.169,320.135 269.066,316.678 268.352,312.704 267.680,308.967 267.148,303.843 266.454,298.845 265.645,293.021 264.693,288.428 263.628,284.884 262.727,281.886 261.976,280.174 262.097,278.716 262.185,277.658 262.861,276.417 263.392,275.468 263.599,275.098 263.793,274.794 263.952,274.448 264.683,272.859 264.382,270.331 264.209,268.690 264.178,268.401 264.152,268.139 264.136,267.915" stroke="#000000" stroke-width="0.75" fill="none" stroke-linecap="round" stroke-linejoin="round" />
  <polyline points="288.901,170.795 288.319,170.939 287.643,170.744 287.090,170.518 286.714,170.365 286.402,170.114 286.163,170.053 285.956,169.999 285.888,170.664 285.839,171.626 285.802,172.361 285.609,173.359 285.515,174.773 285.360,177.122 285.351,180.444 285.332,184.000 285.315,187.036 285.312,190.178 285.332,192.724 285.342,194.128 285.349,195.315 285.375,196.287 285.442,198.749 285.574,199.723 285.883,200.504 286.415,201.848 287.461,202.996 288.437,205.099 289.779,207.988 290.023,212.755 290.432,218.216 290.861,223.944 292.185,230.851 292.610,236.393 292.906,240.257 293.094,243.529 293.354,245.570 293.435,246.215 293.522,246.707 293.625,247.144 293.744,247.650 293.883,248.099 294.045,248.403 294.202,248.699 294.502,248.720 294.928,248.730 295.264,248.738 295.645,248.730 295.995,248.730 296.322,248.731 296.610,248.971 296.826,248.957 297.122,248.938 297.188,248.136 297.203,247.144 297.211,246.587 297.211,245.900 297.203,245.017 297.187,243.338 297.174,241.125 297.203,238.760 297.220,237.312 297.234,235.819 297.290,234.404 297.518,228.650 298.493,224.136 298.733,220.998 298.973,217.867 298.707,216.727 298.637,215.295 298.572,213.958 298.776,212.286 298.541,210.612 298.224,208.352 297.433,206.551 297.386,204.545 297.318,201.629 297.851,197.281 296.179,194.801" stroke="#000000" stroke-width="0.75" fill="none" stroke-linecap="round" stroke-linejoin="round" />
  <polyline points="285.927,195.922 285.766,196.092 285.447,196.601 285.332,196.992 285.244,197.288 285.736,197.379 286.486,197.029 288.316,196.177 291.603,193.509 294.692,191.188 296.086,190.141 297.451,189.121 298.541,188.218 299.201,187.670 299.770,187.180 300.168,186.783 300.571,186.381 300.712,186.181 300.675,185.901 300.615,185.432 300.361,184.838 300.212,184.139 300.013,183.203 300.217,182.036 300.675,180.526 301.307,178.447 302.762,175.820 303.877,173.439 305.331,170.333 306.042,167.686 306.519,165.647 307.063,163.321 307.616,161.138 307.726,161.014" stroke="#000000" stroke-width="0.75" fill="none" stroke-linecap="round" stroke-linejoin="round" />
  <polyline points="284.536,170.934 284.247,170.416 283.517,169.533 283.608,168.617 283.755,167.146 286.851,165.390 289.776,163.003 291.352,161.717 292.833,160.326 294.088,159.201 295.427,158.002 296.440,157.263 297.106,156.608 299.515,154.240 301.376,150.678 302.023,147.607" stroke="#000000" stroke-width="0.75" fill="none" stroke-linecap="round" stroke-linejoin="round" />
  <polyline points="302.346,147.935 302.205,148.569 302.009,149.293 301.839,149.785 301.701,150.185 301.567,150.314 301.515,150.113 301.292,149.236 301.766,145.411 302.583,142.509 302.962,141.159 303.535,139.946 304.017,139.035 304.370,138.368 304.606,137.862 304.944,137.512 305.874,136.549 307.834,136.328 309.441,135.283 310.235,134.767 311.077,133.930 311.759,133.194 312.690,132.189 313.157,131.472 313.850,130.550 314.120,130.191 314.429,129.813 314.681,129.480 314.979,129.086 315.105,128.746 315.284,128.423 315.657,127.752 316.286,126.971 316.772,126.283 316.998,125.962 317.142,125.675 317.323,125.401 317.521,125.102 317.705,124.780 317.979,124.520 318.649,123.884 319.870,123.821 320.848,123.601 321.545,123.445 322.187,123.161 322.843,122.947 323.374,122.773 323.880,122.593 324.286,122.531 324.681,122.472 324.952,122.570 325.073,122.947 325.483,124.222 324.359,126.769 323.079,128.561 321.828,130.313 320.890,132.025 320.017,133.609 319.406,134.718 318.515,135.731 317.655,136.769 317.222,137.292 316.807,137.790 316.448,138.292 316.085,138.799 315.753,139.271 315.468,139.639 315.089,140.128 314.648,140.309 314.313,141.452" stroke="#000000" stroke-width="0.75" fill="none" stroke-linecap="round" stroke-linejoin="round" />
  <polyline points="309.493,162.399 308.281,163.878 308.195,162.906 308.697,161.757 309.404,160.140 311.504,158.122 313.290,156.835 314.595,155.894 315.805,155.609 316.999,155.815 317.651,155.928 318.343,156.198 318.950,156.331 319.242,156.395 319.517,156.365 319.833,156.331 321.636,156.138 323.696,155.375 325.624,154.330 328.619,152.706 332.281,150.446 332.072,148.124" stroke="#000000" stroke-width="0.75" fill="none" stroke-linecap="round" stroke-linejoin="round" />
  <polyline points="310.692,132.174 310.406,132.378 309.987,132.793 309.625,133.143 309.438,133.324 309.288,133.497 309.161,133.559 309.104,133.586 309.028,133.425 308.933,133.282 308.815,133.103 308.610,132.915 308.426,132.728 308.201,132.499 307.821,132.453 307.683,132.262 307.133,131.508 309.660,128.350 311.208,125.225 312.166,123.291 313.113,121.316 313.570,119.888 313.921,118.791 313.784,117.916 313.894,117.055 314.144,115.092 314.919,113.091 315.521,110.660 315.738,109.781 316.104,108.817 316.448,108.017 316.596,107.673 316.730,107.362 316.912,107.048 317.204,106.539 317.617,106.054 317.979,105.612 318.311,105.207 318.568,104.834 318.854,104.593 319.228,104.277 319.720,104.230 320.157,104.266 320.566,104.299 320.962,104.180 321.172,104.404 321.417,104.667 321.193,105.441 321.084,106.078 320.650,108.617 319.774,112.095 318.810,114.928 318.359,116.250 318.261,117.267 318.250,118.365 318.244,118.942 318.264,119.537 318.302,120.077 318.322,120.344 318.403,120.587 318.442,120.857 318.496,121.222 318.405,121.624 318.442,121.927 318.488,122.298 318.821,122.490 319.186,122.393 320.054,122.162 321.355,120.502 322.615,119.095 323.368,118.254 324.125,117.479 324.697,116.778 325.843,115.375 326.280,114.624 327.068,113.820 327.677,113.199 328.454,112.564 329.150,111.680 329.583,111.130 329.970,110.513 330.270,109.880 330.588,109.205 330.730,108.469 331.004,107.740 331.511,106.392 332.600,104.917 333.602,103.850 333.958,103.472 334.300,103.118 334.670,102.868 334.983,102.656 335.286,102.472 335.553,102.415 335.985,102.323 336.217,103.451 336.244,104.404 336.320,107.066 336.383,109.686 335.177,113.254 333.799,117.332 330.799,122.150 328.870,124.898 327.440,126.935 327.510,129.105 328.782,129.480 329.898,129.809 332.433,128.546 335.046,126.799 336.339,125.934 337.547,125.061 338.431,124.382 338.746,124.140 339.000,123.889 339.262,123.689 339.687,123.366 340.111,123.132 340.373,123.085 340.591,123.047 340.585,123.542 340.330,124.067 339.761,125.239 338.254,126.826 336.437,128.511 335.508,129.372 334.445,130.253 333.515,131.016 332.383,131.944 331.521,132.586 330.777,133.143 330.405,133.421 330.051,133.706 329.710,133.987 329.133,134.461 328.518,135.016 328.083,135.560 327.134,136.746 327.386,137.979 328.546,138.380 329.951,138.865 332.400,137.979 334.766,136.630 336.035,135.907 337.212,135.197 338.099,134.767 338.489,134.578 338.823,134.480 339.166,134.402 339.666,134.289 340.204,134.188 340.697,134.213 341.200,134.239 341.612,134.393 341.764,134.767 341.912,135.131 341.704,135.707 341.537,136.165 341.406,136.522 341.172,136.800 340.933,137.083 339.643,138.619 337.719,140.616 335.833,142.144 333.295,144.202 331.870,145.032 331.284,148.073" stroke="#000000" stroke-width="0.75" fill="none" stroke-linecap="round" stroke-linejoin="round" />
  <polyline points="293.721,247.559 293.815,247.535 294.041,247.255 294.185,246.968 294.294,246.749 294.180,246.506 294.001,246.401 293.784,246.275 293.186,246.664 292.697,246.917 291.209,247.690 290.075,248.371 288.481,248.491 286.449,248.643 284.056,248.312 282.217,248.957 280.505,249.557 279.043,250.282 278.368,252.066 277.940,253.199 277.778,254.532 277.301,255.817 277.127,256.287 276.977,256.668 276.654,257.114 276.254,257.664 275.638,258.265 274.939,258.927 274.588,259.260 274.233,259.647 273.872,259.984 272.967,260.828 272.003,261.243 271.090,261.847 268.658,263.457 264.676,267.206 263.812,270.370" stroke="#000000" stroke-width="0.75" fill="none" stroke-linecap="round" stroke-linejoin="round" />
  <polyline points="267.285,206.118 266.990,205.865 266.239,207.042 265.107,209.089 264.590,210.024 264.025,211.126 263.436,212.236 262.847,213.346 262.206,214.461 261.634,215.484 259.232,219.778 257.882,221.977 255.974,224.573" stroke="#000000" stroke-width="0.75" fill="none" stroke-linecap="round" stroke-linejoin="round" />
  <polyline points="259.036,219.512 259.257,219.777 258.733,220.368 257.505,221.879 256.158,223.535 254.169,226.195 251.801,229.671 249.354,233.264 246.670,237.729 244.147,242.323 242.674,245.003 241.362,247.766 240.114,250.442 238.820,253.217 237.577,255.913 236.545,258.373 234.914,262.260 233.855,265.524 233.159,268.016" stroke="#000000" stroke-width="0.75" fill="none" stroke-linecap="round" stroke-linejoin="round" />
  <polyline points="265.483,227.997 266.265,227.012 266.533,227.052 266.174,228.047 265.936,228.706 265.319,229.770 264.555,231.295 264.012,232.381 263.380,233.731 262.605,235.424 261.537,237.755 260.266,240.716 258.756,244.274 256.681,249.159 254.186,254.916 252.308,259.946 251.208,262.894 250.401,265.644 249.807,267.915 248.925,271.281 248.957,273.439 249.107,274.826 249.653,279.876 251.424,275.714 254.303,267.411" stroke="#000000" stroke-width="0.75" fill="none" stroke-linecap="round" stroke-linejoin="round" />
  <polyline points="164.891,223.692 165.312,224.148 165.683,224.313 166.649,224.988 167.730,225.744 169.438,227.001 171.985,229.344 173.690,230.912 175.735,232.786 177.785,234.958 179.925,237.226 182.003,239.880 183.909,242.461 185.701,244.887 187.131,247.388 188.353,249.649 189.543,251.852 190.467,253.860 191.143,255.629 193.542,261.900 192.561,264.983 193.085,266.341" stroke="#000000" stroke-width="0.75" fill="none" stroke-linecap="round" stroke-linejoin="round" />
  <polyline points="163.036,237.740 162.907,237.234 162.665,236.190 163.133,235.877 163.436,235.675 163.988,235.732 164.663,236.066 165.553,236.505 166.603,237.785 168.049,239.503 169.573,241.313 171.476,243.660 173.473,246.401 175.026,248.534 176.621,250.876 178.109,253.174 179.635,255.531 181.022,257.890 182.142,259.896 183.791,262.852 184.661,265.019 185.343,266.669 186.035,268.338 186.639,269.492 187.198,270.647 188.207,272.732 189.281,274.670 190.216,276.349" stroke="#000000" stroke-width="0.75" fill="none" stroke-linecap="round" stroke-linejoin="round" />
  <polyline points="189.612,279.975 188.642,280.420 186.481,280.871 186.087,280.289" stroke="#000000" stroke-width="0.75" fill="none" stroke-linecap="round" stroke-linejoin="round" />
  <polyline points="158.724,266.757 159.416,266.881 161.101,265.570 164.847,265.233" stroke="#000000" stroke-width="0.75" fill="none" stroke-linecap="round" stroke-linejoin="round" />
  <polyline points="200.372,311.496 201.038,312.855 203.020,316.255 205.560,319.011 206.965,320.536 208.587,321.813 210.292,322.574 211.606,323.159 213.006,323.375 214.378,323.228 217.047,322.942 219.592,320.357 222.163,317.526 223.425,316.136 224.663,314.616 225.925,313.069 227.994,310.532 230.248,308.066 232.460,305.516 233.792,303.980 235.285,302.537 236.632,300.922 238.897,298.207 240.836,295.030 242.292,291.468 245.468,283.696 245.467,274.020 245.958,275.934" stroke="#000000" stroke-width="0.75" fill="none" stroke-linecap="round" stroke-linejoin="round" />
  <polyline points="259.447,305.743 259.597,307.814 259.393,311.003 259.176,312.377" stroke="#000000" stroke-width="0.75" fill="none" stroke-linecap="round" stroke-linejoin="round" />
  <polyline points="262.648,301.199 262.624,304.544 262.279,307.740 255.790,318.822" stroke="#000000" stroke-width="0.75" fill="none" stroke-linecap="round" stroke-linejoin="round" />
  <polyline points="235.521,342.514 226.664,348.892 216.407,358.354 208.534,363.322" stroke="#000000" stroke-width="0.75" fill="none" stroke-linecap="round" stroke-linejoin="round" />
  <polyline points="212.707,446.544 213.360,443.596 214.467,439.730 215.952,435.001 217.098,431.353 218.487,427.174 220.029,422.626 221.540,418.168 223.132,413.323 224.901,408.250 226.806,402.790 228.830,397.069 230.885,391.646 233.529,384.667 236.215,378.176 238.810,372.927 240.795,368.915 242.731,365.673 244.330,363.562" stroke="#000000" stroke-width="0.75" fill="none" stroke-linecap="round" stroke-linejoin="round" />
  <polyline points="263.252,440.426 263.347,439.402 263.327,438.405 263.252,437.128 263.144,435.279 262.964,432.807 262.788,429.802 262.506,424.969 262.425,418.921 262.281,413.814" stroke="#000000" stroke-width="0.75" fill="none" stroke-linecap="round" stroke-linejoin="round" />
  <polyline points="205.420,486.689 205.553,485.988 205.627,485.433 205.700,484.926 205.746,484.603 205.783,484.293 205.840,484.007 205.916,483.624 205.992,483.258 206.076,483.076 206.126,482.967 206.335,483.455 206.400,484.423 206.662,488.352 205.258,498.388 204.449,500.460" stroke="#000000" stroke-width="0.75" fill="none" stroke-linecap="round" stroke-linejoin="round" />
  <polyline points="211.360,486.047 209.724,484.204 210.363,494.851 208.578,499.214" stroke="#000000" stroke-width="0.75" fill="none" stroke-linecap="round" stroke-linejoin="round" />
  <polyline points="204.221,501.203 204.213,500.952 203.504,500.773 202.874,500.876 201.818,501.049 201.062,502.599 199.165,504.036 197.183,505.537 194.138,507.186 191.878,507.976 188.905,509.015 186.445,508.380 183.856,508.718 181.455,509.033 179.140,510.000 177.138,510.330 176.039,510.511 175.027,510.605 174.164,510.796 173.797,510.876 173.502,510.968 173.193,511.073 172.925,511.163 172.691,511.341 172.449,511.400 172.095,511.485 171.733,511.137 171.434,510.758 170.522,509.599 169.258,507.855 167.716,507.321 167.209,507.146 166.697,507.028 166.186,507.044 165.385,507.070 164.708,507.790 164.191,508.479 163.249,509.735 162.683,510.881 161.925,512.143 161.611,512.666 161.256,513.256 160.998,513.766 160.853,514.053 160.677,514.269 160.622,514.560 160.560,514.889 160.497,515.238 160.578,515.529 160.736,516.093 161.876,516.245 162.800,516.083 163.453,515.968 164.094,515.509 164.567,515.113 165.418,514.403 165.672,513.710 166.238,513.162 166.544,512.866 166.920,512.597 167.305,512.419 167.579,512.293 167.832,512.144 168.049,512.143 168.583,512.138 168.301,514.132 168.180,515.529 168.138,516.023 168.027,516.499 168.136,516.876 168.292,517.411 169.186,517.593 169.903,517.656 170.461,517.705 171.013,517.670 171.522,517.480 172.312,517.185 173.005,516.329 173.700,515.667 174.129,515.259 174.521,514.907 174.864,514.736 175.255,514.540 175.616,514.831 175.791,515.252 175.939,515.608 175.828,516.153 175.878,516.599 176.090,518.473 180.010,517.452 181.914,517.568" stroke="#000000" stroke-width="0.75" fill="none" stroke-linecap="round" stroke-linejoin="round" />
  <polyline points="183.856,510.896 182.993,509.973 182.391,511.245 182.098,512.659 181.844,513.884 181.852,515.166 181.862,516.309 181.867,516.940 181.770,517.513 181.914,518.072 182.127,518.894 182.922,519.600 183.769,520.073 185.608,521.102 188.022,521.004 189.516,520.262 190.494,519.776 190.891,518.958 191.143,517.845 191.280,517.240 191.315,516.603 191.371,516.083 191.427,515.563 191.554,515.146 191.834,514.975 192.235,514.732 193.021,515.114 193.873,515.290 198.600,516.263 202.898,516.388 207.651,516.687 210.057,516.838 212.678,516.645 214.789,516.083 216.463,515.637 218.611,514.990 219.661,513.301 220.701,511.628 219.646,509.093 218.034,506.855 216.926,505.317 215.595,504.165 214.745,503.243 214.357,502.821 214.033,502.411 213.722,501.996 213.503,501.705 213.339,501.367 213.074,501.065 212.649,500.579 211.841,500.277 211.316,499.806 208.913,497.648 210.524,493.376 211.036,489.471" stroke="#000000" stroke-width="0.75" fill="none" stroke-linecap="round" stroke-linejoin="round" />
  <polyline points="256.901,492.530 257.191,493.078 258.672,495.108 259.447,498.560 259.860,500.400 259.953,502.447 259.963,504.212 259.968,505.061 259.975,505.858 259.910,506.629 259.872,507.094 259.766,507.542 259.683,507.976 259.393,509.491 259.210,510.803 259.359,508.064" stroke="#000000" stroke-width="0.75" fill="none" stroke-linecap="round" stroke-linejoin="round" />
  <polyline points="263.672,489.937 262.338,489.926 262.636,491.545 263.068,493.877 263.881,498.258 264.095,505.227 264.503,505.559" stroke="#000000" stroke-width="0.75" fill="none" stroke-linecap="round" stroke-linejoin="round" />
  <polyline points="260.243,506.251 258.541,506.356 258.434,508.190 257.548,510.292 256.724,512.249 255.273,514.905 254.950,516.914 254.839,517.606 254.794,518.250 254.907,518.726 255.146,519.735 256.697,519.928 258.056,520.111 258.782,520.209 259.485,520.354 260.147,520.401 260.460,520.422 260.759,520.441 261.074,520.401 262.544,520.210 263.715,518.932 264.739,517.656 265.134,517.165 265.605,516.613 265.990,516.083 266.467,515.427 266.683,514.831 267.101,514.371 268.583,512.736 271.359,513.123 274.519,513.490 277.409,513.824 282.517,514.854 288.201,516.460 290.461,517.099 292.866,517.492 295.024,517.795 296.380,517.985 297.666,518.094 298.821,518.210 301.382,518.468 303.490,519.179 302.206,517.480" stroke="#000000" stroke-width="0.75" fill="none" stroke-linecap="round" stroke-linejoin="round" />
  <polyline points="266.410,501.996 266.235,502.087 267.402,501.960 269.096,502.412 270.596,502.812 272.471,503.991 274.476,504.955 276.200,505.783 277.952,506.464 279.436,506.818 282.433,507.531 284.245,506.515 285.699,506.251 288.453,505.751 290.625,506.898 293.301,507.233 294.764,507.416 296.194,507.720 297.386,507.233 299.381,506.419 301.403,503.170 301.559,503.847" stroke="#000000" stroke-width="0.75" fill="none" stroke-linecap="round" stroke-linejoin="round" />
  <polyline points="302.390,507.233 302.368,507.201 302.126,507.662 301.979,508.114 301.866,508.461 302.069,508.860 302.259,508.945 302.380,509.000 302.758,508.378 303.046,507.925 303.739,506.840 304.743,505.423 305.732,503.935 306.286,503.101 306.791,502.347 307.219,501.845 307.435,501.592 307.583,501.363 307.770,501.291 308.673,500.946 309.713,504.349 310.692,507.233 311.443,509.446 312.230,512.007 312.135,513.766 312.014,516.024 309.756,516.891 307.499,517.480 304.923,518.152 301.793,519.036 301.010,517.605 300.705,517.048 300.756,516.141 301.332,514.736" stroke="#000000" stroke-width="0.75" fill="none" stroke-linecap="round" stroke-linejoin="round" />
  <polyline points="315.564,507.460 314.341,508.120 314.899,507.869 315.844,507.548 316.519,507.319 317.411,507.081 318.162,507.095 319.673,507.122 320.260,509.679 319.597,511.677 319.301,512.568 318.752,513.298 318.206,513.678 317.975,513.840 317.732,513.890 317.463,513.855 316.874,513.777 316.228,513.333 315.844,512.936 315.540,512.620 315.566,512.319 315.888,512.054 316.255,511.753 316.967,511.545 317.603,511.261 318.248,510.973 318.780,510.464 319.413,510.103 319.788,509.890 320.139,509.615 320.481,509.499 321.158,509.270 321.733,510.390 321.968,511.349 322.086,511.833 322.174,512.320 322.152,512.747 322.094,513.838 320.691,514.472 319.317,514.786" stroke="#000000" stroke-width="0.75" fill="none" stroke-linecap="round" stroke-linejoin="round" />
  <polyline points="264.136,489.420 263.079,489.145 261.895,491.145 264.276,496.659" stroke="#000000" stroke-width="0.75" fill="none" stroke-linecap="round" stroke-linejoin="round" />
  <polyline points="192.254,127.214 192.278,125.607 190.251,125.268 187.618,127.126 186.429,127.965 185.189,129.135 184.320,130.638 183.601,131.882 183.232,133.419 183.069,135.321 182.843,137.957 183.129,141.183 183.673,144.045 184.001,145.774 184.528,147.374 184.924,148.816 185.741,151.793 185.895,153.768 185.903,155.954 185.934,163.825 184.649,171.203 184.416,175.201 184.143,179.891 185.205,184.210 186.271,188.646 187.183,192.440 187.887,196.432 187.802,200.139 187.756,202.122 188.045,204.016 187.889,205.892 187.834,206.554 187.876,207.310 187.889,208.019 187.902,208.686 187.814,209.255 187.942,209.832 188.098,210.540 188.666,211.227 189.149,212.047 190.647,214.595 190.245,217.625 190.164,220.079 190.077,222.699 191.198,225.351 191.791,228.135 192.278,230.426 192.428,233.491 192.622,236.305 192.752,238.197 193.464,239.961 194.109,241.542 194.751,243.115 195.041,245.235 195.404,247.660 195.706,249.682 196.040,251.137 196.567,252.293 197.031,253.310 197.419,254.344 197.722,255.263 197.911,255.838 198.158,256.353 198.378,256.787 198.548,257.122 198.682,257.417 198.789,257.857 199.245,259.740 199.505,263.135 199.856,266.530 200.079,268.681 200.430,270.270 200.740,271.855 200.916,272.756 201.233,273.493 201.711,274.637 201.975,275.269 202.298,276.023 202.638,277.054 203.301,279.065 203.940,281.978 204.493,284.557 205.317,288.402 205.885,291.411 205.980,293.784" stroke="#000000" stroke-width="0.75" fill="none" stroke-linecap="round" stroke-linejoin="round" />
  <polyline points="238.907,183.031 238.439,180.787 239.361,179.283 240.061,179.418 240.865,179.574 241.036,183.737 241.225,188.646 241.312,190.926 241.411,193.377 241.505,195.683 241.561,197.062 241.630,198.383 241.689,199.585 241.797,201.817 241.889,203.509 241.968,205.099 242.235,210.444 241.993,216.502 241.689,222.294 241.479,226.281 241.708,229.347 241.872,231.988 242.131,236.131 240.657,239.857 240.621,243.531 240.572,248.604 242.126,253.858 244.007,260.639 245.923,267.549 246.037,273.171 246.281,277.973 246.572,283.689 247.527,291.746 247.952,297.686" stroke="#000000" stroke-width="0.75" fill="none" stroke-linecap="round" stroke-linejoin="round" />
  <polyline points="202.691,289.756 202.785,290.253 203.223,291.730 203.705,293.142 203.913,293.750 204.062,294.357 204.265,294.804 204.561,295.453 205.019,295.782 205.332,295.546 205.837,295.167 205.808,293.348 205.936,291.657 206.081,289.747 206.208,287.628 206.260,285.992 206.285,285.191 206.237,284.516 206.260,284.053 206.288,283.475 206.554,283.280 206.767,283.537 207.058,283.889 207.181,284.845 207.414,285.816 207.684,286.939 208.045,288.165 208.298,289.240 208.440,289.844 208.564,290.392 208.665,290.863 208.853,291.738 208.959,292.382 208.998,292.261 209.099,291.944 209.028,291.108 208.945,290.121 208.833,288.785 208.446,287.087 208.158,285.262 207.957,283.988 207.800,282.649 207.694,281.460 207.587,280.257 207.564,279.196 207.651,278.539 207.744,277.837 208.024,277.548 208.394,277.973 209.043,278.717 209.548,280.843 210.249,283.172 210.793,284.981 211.405,287.003 211.963,289.013 212.821,292.101 213.550,295.218 214.098,297.221 214.729,299.526 215.003,299.504 214.973,298.278 214.949,297.333 214.745,295.792 214.378,293.973 214.142,292.804 213.770,291.527 213.398,290.083 212.892,288.122 212.326,285.915 211.920,283.952 211.655,282.679 211.503,281.474 211.403,280.579 211.314,279.779 211.294,279.269 211.360,279.131 211.387,279.073 211.881,280.200 212.331,281.687 213.165,284.445 214.320,288.646 215.305,291.984 215.796,293.647 216.271,295.115 216.600,296.062 216.916,296.974 217.093,297.349 217.107,296.944 217.121,296.547 217.036,295.863 216.923,295.043 216.794,294.103 216.555,292.909 216.276,291.468 216.066,290.386 215.817,289.176 215.576,287.855 215.225,285.933 214.872,283.815 214.649,281.963 214.475,280.521 214.511,279.203 214.561,278.300 214.613,277.369 214.932,277.172 215.252,277.658 215.621,278.218 215.864,279.578 216.232,281.133 216.858,283.772 217.695,287.164 218.594,290.033 219.357,292.466 220.284,294.486 221.096,295.597 221.613,296.304 222.254,296.493 222.627,296.428 223.326,296.305 223.267,294.986 222.811,292.538 222.658,291.722 222.450,290.769 222.207,289.705 221.863,288.205 221.492,286.488 221.149,284.834 220.884,283.557 220.666,282.310 220.492,281.271 220.248,279.807 220.147,278.689 220.169,278.388 220.160,278.508 220.312,279.097 220.492,279.874 220.990,282.012 222.703,286.696 224.342,290.259 224.951,291.584 225.594,292.791 226.152,293.646 226.801,294.639 227.432,295.007 227.727,294.753 227.958,294.554 227.820,293.733 227.727,292.815 227.643,291.981 227.632,290.928 227.499,289.705 227.401,288.793 227.197,287.797 227.036,286.734 226.796,285.156 226.636,283.453 226.520,282.102 226.380,280.485 226.315,279.440 226.520,279.647 226.897,280.029 227.132,281.512 227.587,283.071 228.513,286.242 229.884,290.408 230.885,293.041 231.210,293.897 231.514,294.583 231.768,295.043 232.366,296.124 232.636,295.399 232.696,293.595 232.725,292.701 232.722,291.558 232.696,290.171 232.660,288.331 232.556,286.070 232.416,283.726 232.322,282.167 232.146,280.593 232.040,279.270 231.897,277.485 231.864,276.132 231.952,275.795 231.918,275.926 232.178,276.692 232.416,277.696 232.627,278.590 233.079,279.744 233.483,280.994 234.374,283.753 235.475,286.896 236.352,289.240 236.835,290.529 237.257,291.556 237.560,292.210 237.910,292.968 238.063,293.092 238.119,292.576 238.183,291.989 238.186,290.801 238.076,289.202 238.012,288.275 237.881,287.205 237.743,285.992 237.600,284.726 237.436,283.325 237.280,281.875 237.111,280.320 236.934,278.721 236.816,277.331 236.629,275.124 236.628,273.518 236.868,273.391 236.891,273.379 237.321,274.482 237.656,275.518 237.976,276.509 238.435,277.735 238.863,278.993 239.660,281.333 240.499,283.797 241.225,285.677 241.806,287.182 242.259,288.274 242.756,288.774 243.163,289.184 243.656,289.160 244.103,288.774 245.347,287.698 246.102,283.669 246.649,281.082 246.808,280.328 246.919,279.697 247.025,279.270 247.131,278.842 247.254,278.615 247.348,278.628 247.504,278.649 247.570,279.749 247.716,280.755 248.055,283.092 248.919,285.899 249.107,286.231" stroke="#000000" stroke-width="0.75" fill="none" stroke-linecap="round" stroke-linejoin="round" />
  <polyline points="282.497,170.002 282.290,169.350 282.378,168.695 282.541,168.101 282.639,167.746 282.801,167.439 282.874,167.182 282.966,166.854 282.722,166.587 282.454,166.528 281.892,166.405 280.815,167.230 279.812,168.101 278.428,169.304 277.295,170.687 276.006,172.696 275.111,174.092 274.083,175.812 273.085,177.329 270.852,180.719 269.021,182.899 266.637,186.002 263.474,190.121 259.538,194.198 256.394,197.495 254.717,199.254 253.581,200.513 252.676,201.901 252.216,202.607 251.774,203.316 251.337,203.890 251.102,204.199 250.858,204.471 250.594,204.734 247.011,208.293 244.069,211.913 242.756,215.207" stroke="#000000" stroke-width="0.75" fill="none" stroke-linecap="round" stroke-linejoin="round" />
  <polyline points="223.790,128.423 223.018,128.152 222.643,127.509 222.443,126.660 222.367,126.335 222.346,125.979 222.303,125.641 222.218,124.955 221.831,124.325 221.796,124.294 221.845,124.338 221.850,124.798 222.207,125.313 222.499,125.735 223.682,125.356 224.621,124.848 225.002,124.642 225.368,124.363 225.732,124.105 226.231,123.751 226.709,123.373 226.983,123.224 226.889,123.275 226.704,123.405 226.712,123.501 226.718,123.567 228.284,123.543 229.354,123.878 231.714,124.618 232.776,127.196 234.034,129.946 235.858,133.933 236.749,136.577 237.936,140.797 238.938,144.360 239.767,147.761 240.481,151.648 241.129,155.175 240.791,158.089 241.129,160.410 241.419,162.404 241.598,165.248 241.409,167.636 241.282,169.232 240.663,170.946 240.254,172.142 239.492,174.370 240.458,177.502 240.201,180.023" stroke="#000000" stroke-width="0.75" fill="none" stroke-linecap="round" stroke-linejoin="round" />
  <polyline points="242.108,155.450 241.644,155.579 240.734,155.317 240.341,154.518 239.589,152.989 241.444,149.380 242.939,147.708 243.400,147.193 243.830,146.855 244.243,146.688 244.530,146.573 244.803,146.503 245.030,146.550 246.077,146.768 245.234,150.041 244.707,152.391 244.253,154.414 244.324,156.335 244.514,158.370 244.609,159.384 244.806,160.492 244.750,161.656 244.621,164.364 242.356,167.204 241.269,166.855" stroke="#000000" stroke-width="0.75" fill="none" stroke-linecap="round" stroke-linejoin="round" />
  <polyline points="182.982,158.874 182.982,157.565 182.982,156.692 182.982,155.538 182.982,154.533 183.050,153.368 182.929,152.429 182.877,152.025 182.827,151.666 182.702,151.409 182.493,150.980 182.183,150.715 181.862,150.855 181.519,151.005 181.307,151.722 181.075,152.341 180.457,153.984 180.365,156.512 180.523,158.559 180.699,160.828 181.699,162.251 182.142,163.607 182.846,165.766 181.801,168.113 182.702,170.191" stroke="#000000" stroke-width="0.75" fill="none" stroke-linecap="round" stroke-linejoin="round" />
  <polyline points="194.293,126.937 193.935,127.070 193.523,127.172 193.138,127.126 192.909,127.099 192.708,126.823 192.482,126.698 192.123,126.500 191.615,126.682 191.231,127.076 190.397,127.930 190.010,129.979 189.656,131.658 189.160,134.015 189.071,135.417 188.633,137.272 187.989,139.997 187.364,143.146 187.618,145.430 187.997,148.842 188.319,152.175 188.353,155.815 188.397,160.652 187.059,167.370 189.009,170.833" stroke="#000000" stroke-width="0.75" fill="none" stroke-linecap="round" stroke-linejoin="round" />
  <polyline points="189.752,172.281 189.706,172.912 189.539,173.500 189.612,173.942 189.645,174.137 189.831,174.285 190.024,174.458 190.329,174.734 190.714,175.044 191.047,175.377 192.454,176.784 192.773,178.328 194.293,179.318 195.063,179.820 196.073,180.485 197.118,180.627 198.788,180.854 200.372,179.884 201.894,179.456 205.207,178.524 207.532,177.033 210.572,174.924" stroke="#000000" stroke-width="0.75" fill="none" stroke-linecap="round" stroke-linejoin="round" />
  <polyline points="220.589,175.516 220.388,175.597 219.820,175.515 219.285,175.478 218.695,175.437 218.201,175.784 218.314,175.944 218.445,176.129 219.114,176.059 219.661,176.082 221.466,176.158 223.735,176.099 225.409,176.082 226.646,176.070 227.806,176.423 228.890,176.359 230.160,176.284 230.927,175.346 231.628,173.905 231.929,173.286 232.234,172.624 232.503,172.042 232.690,171.637 232.861,171.275 233.063,170.934 233.166,170.761 233.254,170.597 233.431,170.380 233.862,169.851 234.586,169.208 235.154,168.567 237.304,166.140 237.748,164.525 238.539,162.210 239.064,160.672 239.185,158.789 239.327,157.024 239.402,156.080 239.499,155.091 239.467,154.191 239.393,152.155 237.828,150.780 237.376,148.728 236.891,146.524 236.724,144.380 236.125,142.333 235.399,139.852 233.660,137.777 232.556,135.699 230.516,131.862 227.979,127.285 223.878,126.333" stroke="#000000" stroke-width="0.75" fill="none" stroke-linecap="round" stroke-linejoin="round" />
  <polyline points="224.394,129.304 223.923,127.955 223.446,127.327 222.487,126.748 221.103,125.913 218.281,124.718 215.769,123.878 213.082,122.980 210.973,122.394 207.930,122.342 206.244,122.314 204.726,122.263 203.478,122.254 201.408,122.240 199.160,123.207 198.045,124.382 197.366,125.098 196.834,125.712 196.147,126.383 195.198,127.310 193.441,128.503 192.254,131.205" stroke="#000000" stroke-width="0.75" fill="none" stroke-linecap="round" stroke-linejoin="round" />
  <polyline points="191.371,128.737 190.650,127.998 192.251,125.011 194.293,121.650 196.867,117.413 199.487,115.499 201.571,115.343 203.286,115.215 205.270,114.642 207.327,114.701 209.856,114.774 211.810,116.168 214.045,117.760 217.021,119.880 219.775,122.052 222.303,125.968" stroke="#000000" stroke-width="0.75" fill="none" stroke-linecap="round" stroke-linejoin="round" />
  <polyline points="209.409,157.300 208.699,158.346 208.032,161.471 207.834,164.073 207.684,166.048 207.587,167.320 207.834,168.378 207.965,168.937 208.262,169.410 208.578,169.813 208.749,170.032 209.048,170.168 209.225,170.380 209.729,170.983 209.297,172.380 209.269,173.200 209.263,173.366 209.218,173.460 209.269,173.577 209.396,173.868 209.652,174.163 209.969,174.408 211.557,175.636 215.006,175.620 217.667,175.239 220.385,174.850 221.208,171.772 220.956,168.932 220.586,164.757 220.101,158.275 216.416,156.747" stroke="#000000" stroke-width="0.75" fill="none" stroke-linecap="round" stroke-linejoin="round" />
  <polyline points="202.227,157.024 200.925,155.484 200.399,156.577 200.372,157.678 200.361,158.123 200.387,158.551 200.556,158.836 201.096,159.743 203.547,158.106 202.174,156.658" stroke="#000000" stroke-width="0.75" fill="none" stroke-linecap="round" stroke-linejoin="round" />
  <polyline points="223.834,156.331 223.793,155.739 223.831,155.087 223.878,154.569 223.903,154.288 223.954,154.079 223.974,153.965 224.000,153.816 223.940,153.854 223.878,154.103 223.760,154.577 223.659,155.491 223.598,156.230 223.572,156.544 223.563,156.825 223.598,157.074 223.669,157.582 223.999,157.970 224.298,157.955 224.574,157.942 224.835,157.348 224.998,156.885 225.142,156.474 225.021,155.968 224.945,155.349" stroke="#000000" stroke-width="0.75" fill="none" stroke-linecap="round" stroke-linejoin="round" />
  <polyline points="212.147,189.753 212.336,188.334 212.623,186.861 213.442,185.398 214.177,184.083 215.023,182.827 215.996,182.616 216.991,182.400 217.805,183.869 218.410,185.297 218.666,185.900 218.998,186.515 219.241,187.198 219.421,187.699 219.617,188.213 219.661,188.646 219.704,189.065 219.522,189.408 219.241,189.565 218.507,189.975 216.605,188.741 215.856,188.960" stroke="#000000" stroke-width="0.75" fill="none" stroke-linecap="round" stroke-linejoin="round" />
</svg>